Unique ID : 41495603537364044475928559501263720911 (0x1F37C335E8265F503C500F9A87AF51CF)
Complete name : /home/gj5/home/data/La.Ciénaga.2001.DVDRip.x264-HANDJOB.mkv
Format : Matroska
Format version : Version 2
File size : 1.46 GiB
Duration : 1h 39mn
Overall bit rate : 2 089 Kbps
Writing application : HandBrake 0.9.6
Writing library : libmkv 0.6.5

Video
ID : 1
Format : AVC
Format/Info : Advanced Video Codec
Format profile : High@L3.1
Format settings, CABAC : Yes
Format settings, ReFrames : 9 frames
Format settings, GOP : M=1, N=25
Codec ID : V_MPEG4/ISO/AVC
Duration : 1h 39mn
Bit rate : 1 855 Kbps
Width : 718 pixels
Height : 480 pixels
Display aspect ratio : 16:9
Original display aspect ratio : 16:9
Frame rate : 23.976 fps
Color space : YUV
Chroma subsampling : 4:2:0
Bit depth : 8 bits
Scan type : Progressive
Bits/(Pixel*Frame) : 0.224
Stream size : 1.29 GiB (89%)
Writing library : x264 core 120
Encoding settings : cabac=1 / ref=9 / deblock=1:-2:-2 / analyse=0x3:0x133 / me=umh / subme=9 / psy=1 / psy_rd=1.00:0.00 / mixed_ref=1 / me_range=24 / chroma_me=1 / trellis=2 / 8x8dct=1 / cqm=0 / deadzone=21,11 / fast_pskip=0 / chroma_qp_offset=-2 / threads=1 / sliced_threads=0 / nr=0 / decimate=1 / interlaced=0 / bluray_compat=0 / constrained_intra=0 / bframes=6 / b_pyramid=2 / b_adapt=2 / b_bias=0 / direct=3 / weightb=1 / open_gop=0 / weightp=2 / keyint=240 / keyint_min=24 / scenecut=40 / intra_refresh=0 / rc_lookahead=50 / rc=crf / mbtree=1 / crf=18.0 / qcomp=0.60 / qpmin=3 / qpmax=69 / qpstep=4 / ip_ratio=1.40 / aq=1:1.20
Language : English
Color primaries : BT.601-6 525, BT.1358 525, BT.1700 NTSC, SMPTE 170M
Transfer characteristics : BT.709-5, BT.1361
Matrix coefficients : BT.601-6 525, BT.1358 525, BT.1700 NTSC, SMPTE 170M

Audio
ID : 2
Format : AC-3
Format/Info : Audio Coding 3
Mode extension : CM (complete main)
Codec ID : A_AC3
Duration : 1h 39mn
Bit rate mode : Constant
Bit rate : 192 Kbps
Channel(s) : 2 channels
Channel positions : Front: L R
Sampling rate : 48.0 KHz
Bit depth : 16 bits
Compression mode : Lossy
Stream size : 137 MiB (9%)
Language : Spanish

Text
ID : 3
Format : VobSub
Codec ID : S_VOBSUB
Codec ID/Info : The same subtitle format used on DVDs
Language : English

Menu
00:00:00.000 : Chapter 1
00:09:32.488 : Chapter 2
00:16:29.530 : Chapter 3
00:23:26.238 : Chapter 4
00:31:04.070 : Chapter 5
00:35:24.831 : Chapter 6
00:44:27.998 : Chapter 7
00:51:10.567 : Chapter 8
00:58:37.263 : Chapter 9
01:02:46.387 : Chapter 10
01:11:01.048 : Chapter 11
01:18:10.936 : Chapter 12
01:21:25.130 : Chapter 13
01:27:55.520 : Chapter 14
01:31:25.271 : Chapter 15
01:36:24.195 : Chapter 16
